<?xml version="1.0" standalone="no"?>
<!DOCTYPE svg PUBLIC "-//W3C//DTD SVG 20010904//EN"
 "http://www.w3.org/TR/2001/REC-SVG-20010904/DTD/svg10.dtd">
<svg version="1.0" xmlns="http://www.w3.org/2000/svg"
 width="512.000000pt" height="512.000000pt" viewBox="0 0 512.000000 512.000000"
 preserveAspectRatio="xMidYMid meet">

<g transform="translate(0.000000,512.000000) scale(0.100000,-0.100000)"
fill="#000000" stroke="none">
<path d="M0 4638 c0 -462 8 -804 18 -793 2 2 12 0 21 -5 15 -7 17 -2 16 41 -1
27 3 49 8 49 4 0 5 9 2 20 -4 11 -2 20 4 20 6 0 11 -6 11 -12 0 -9 3 -8 9 2 6
8 7 18 5 22 -3 4 0 8 6 8 6 0 8 5 4 13 -5 7 0 6 11 -3 14 -11 17 -11 11 -1 -5
8 -3 17 5 22 10 6 10 9 2 9 -7 0 -10 7 -7 15 6 13 -6 20 -28 16 -5 0 -8 14 -8
32 0 24 3 28 10 17 8 -13 11 -13 22 -1 10 10 10 12 0 7 -14 -8 -17 10 -3 19 6
3 15 -3 21 -12 11 -17 11 -17 6 -1 -6 19 25 43 39 30 5 -4 5 -1 1 6 -4 7 -13
9 -19 5 -7 -3 -4 3 6 14 9 11 17 27 17 37 0 9 7 19 15 22 8 4 12 10 9 15 -3 5
-1 9 5 9 5 0 12 -6 14 -12 3 -7 3 2 0 21 -6 31 -4 34 15 29 16 -4 19 -2 15 10
-4 10 -2 13 5 8 7 -4 12 -3 12 3 0 5 -6 11 -12 14 -10 3 -10 7 -1 17 6 7 9 18
7 24 -3 7 7 18 21 24 14 6 25 16 25 22 0 6 4 9 9 5 5 -3 12 -1 16 5 3 5 -1 10
-10 10 -9 0 -13 5 -10 10 4 6 10 8 15 5 5 -3 17 2 27 12 10 10 30 26 43 35 14
10 18 15 9 12 -22 -7 -35 14 -15 22 9 3 16 15 16 26 0 16 -3 18 -13 10 -11 -9
-11 -3 -3 33 8 32 13 41 22 34 8 -7 14 -6 19 1 3 5 1 10 -4 10 -18 0 -12 25 9
40 13 9 18 21 15 35 -5 15 -2 14 9 -5 12 -20 15 -21 16 -7 0 10 5 15 10 12 9
-6 14 10 13 43 -1 6 3 12 8 12 5 0 9 -8 10 -17 1 -18 1 -18 15 27 4 10 7 11
12 3 5 -8 11 -7 20 3 7 8 8 14 2 14 -5 0 -10 5 -10 11 0 6 7 9 15 5 9 -3 15 0
15 9 0 8 5 15 11 15 6 0 8 -9 3 -22 -6 -21 -6 -21 11 -4 11 11 14 20 8 24 -13
10 -24 42 -14 42 5 0 12 -6 14 -12 4 -10 6 -9 6 1 1 10 5 10 14 3 9 -8 12 -3
13 20 1 20 -2 25 -7 16 -6 -8 -9 -9 -9 -1 0 23 12 42 25 37 7 -3 16 -1 20 5 3
6 2 11 -2 11 -5 0 -18 7 -29 15 -18 14 -17 14 11 11 17 -2 25 -1 18 1 -6 2
-13 10 -16 16 -3 9 7 11 36 8 27 -2 38 0 33 8 -4 6 0 11 9 11 10 0 14 -5 10
-12 -4 -7 0 -5 9 6 8 10 20 15 26 11 6 -4 22 1 36 10 13 9 29 13 34 10 6 -3
10 -2 10 4 0 5 19 8 43 6 82 -6 111 -20 128 -60 6 -14 7 -6 5 27 -3 26 0 50 5
53 33 21 -19 30 -89 16 -2 -1 -1 -4 1 -8 3 -5 -17 -9 -44 -10 -28 0 -49 3 -49
9 0 7 -4 7 -12 1 -15 -12 -94 -8 -131 6 -15 6 -176 10 -381 11 l-356 0 0 -482z
m637 270 c-3 -7 -5 -2 -5 12 0 14 2 19 5 13 2 -7 2 -19 0 -25z m-137 -158 c0
-5 -4 -10 -10 -10 -5 0 -10 5 -10 10 0 6 5 10 10 10 6 0 10 -4 10 -10z m-110
-249 c0 -5 -6 -11 -13 -14 -8 -3 -14 1 -14 9 0 8 6 14 14 14 7 0 13 -4 13 -9z"/>
<path d="M1197 5113 c-4 -3 -7 -21 -7 -40 0 -18 -4 -41 -9 -51 -5 -9 -14 -53
-21 -97 -6 -44 -20 -114 -30 -155 -18 -71 -63 -320 -74 -405 -6 -41 -9 -191
-7 -278 1 -39 5 -50 20 -54 10 -3 34 -26 52 -51 18 -26 40 -54 49 -63 30 -34
40 -48 40 -56 0 -5 12 -23 28 -41 21 -25 46 -38 111 -57 46 -14 87 -27 90 -30
8 -9 -16 -40 -29 -37 -6 1 -9 -2 -5 -8 9 -15 31 -12 45 5 7 8 19 15 27 15 13
0 13 -3 3 -15 -10 -12 -12 -55 -8 -178 3 -89 4 -167 1 -174 -2 -7 -12 -10 -21
-7 -16 5 -16 5 0 -9 10 -7 20 -34 23 -58 16 -126 29 -179 43 -179 10 0 12 -7
8 -26 -6 -21 -4 -25 8 -21 9 4 23 4 31 0 14 -5 14 -8 0 -30 -19 -28 -18 -31
67 -141 26 -35 48 -70 48 -78 0 -7 -21 -25 -47 -37 -27 -13 -77 -40 -111 -60
-35 -21 -67 -37 -71 -37 -10 0 -71 -64 -71 -74 0 -5 -15 -27 -33 -50 -19 -23
-39 -50 -45 -61 -10 -18 -11 -18 -12 -2 0 10 -5 15 -10 12 -6 -3 -10 4 -10 16
0 21 -1 22 -20 4 -28 -25 -41 -82 -31 -128 16 -67 60 -123 214 -265 55 -51 70
-83 45 -98 -6 -4 -8 -3 -5 4 12 18 -3 40 -51 77 -26 19 -66 50 -89 67 -41 32
-133 162 -159 225 -18 42 2 91 62 149 24 24 44 49 44 56 0 11 -2 11 -8 0 -7
-10 -14 -10 -38 3 -16 8 -36 15 -44 14 -10 0 -11 -2 -2 -6 17 -7 15 -23 -3
-23 -8 0 -15 -7 -15 -16 0 -9 -11 -29 -25 -45 -18 -23 -22 -35 -16 -52 5 -12
14 -44 20 -71 12 -50 32 -84 83 -144 47 -55 31 -59 -23 -7 -75 73 -101 131
-98 213 5 103 -13 116 -52 40 -42 -82 1 -176 126 -278 39 -32 96 -85 125 -117
29 -32 57 -57 61 -56 4 1 12 -11 18 -27 5 -17 8 -30 5 -30 -3 0 0 -10 7 -21
11 -21 10 -22 -27 -16 -38 6 -247 87 -241 93 2 2 46 -11 98 -30 188 -67 199
-54 24 30 -62 30 -118 61 -125 69 -7 8 -22 15 -35 15 -12 0 -30 8 -39 19 -16
17 -16 19 1 25 10 3 28 12 41 20 20 11 21 14 7 20 -31 11 -54 6 -60 -14 -3
-11 -10 -20 -15 -20 -12 0 -31 36 -23 44 3 3 -1 14 -11 25 -16 18 -71 170 -63
177 2 2 21 10 43 18 l39 15 -37 0 c-45 1 -49 15 -10 29 25 10 23 11 -23 12
l-50 1 40 25 40 25 -40 -7 -40 -7 25 28 c14 15 78 54 144 87 80 40 120 66 123
79 5 16 8 18 14 7 5 -7 9 -8 9 -3 0 16 -13 31 -37 44 -12 6 -43 51 -67 99 -41
77 -51 89 -88 105 -28 11 -45 14 -52 7 -7 -7 -1 -10 16 -10 30 0 48 -38 48
-102 0 -42 -25 -102 -40 -93 -5 3 -23 41 -40 85 -23 60 -28 85 -21 99 6 10 7
21 4 25 -3 3 -1 6 6 6 7 0 10 4 7 9 -8 12 -100 5 -104 -8 -2 -6 -13 -11 -24
-11 -11 0 -33 -11 -50 -25 -16 -14 -42 -28 -56 -31 -15 -4 -33 -12 -41 -18
-11 -8 -13 -8 -7 2 4 7 2 12 -6 12 -17 0 -48 -36 -40 -46 4 -4 1 -4 -6 0 -7 4
-10 12 -7 17 11 17 -23 9 -74 -17 -46 -24 -49 -28 -33 -40 9 -7 23 -14 31 -14
10 0 8 -6 -7 -23 -12 -13 -22 -29 -22 -35 0 -7 -5 -12 -10 -12 -7 0 -7 6 0 20
6 11 7 20 3 20 -4 0 -1 4 7 10 30 19 -1 21 -77 6 -43 -8 -107 -18 -143 -21
-56 -5 -62 -4 -44 7 17 10 20 18 13 36 -5 12 -15 22 -24 22 -8 0 -15 9 -15 21
0 11 -4 17 -10 14 -5 -3 -10 3 -10 14 0 11 -10 27 -22 35 -15 11 -18 16 -8 16
10 0 11 3 4 8 -6 4 -14 17 -18 30 -4 12 -12 20 -17 16 -5 -3 -7 -9 -4 -14 3
-5 -4 -14 -16 -21 -19 -10 -21 -9 -16 5 4 9 3 24 0 33 -5 13 -9 9 -19 -18 -7
-19 -13 -26 -13 -16 -1 9 -6 17 -12 17 -6 0 -8 7 -5 16 3 8 2 12 -4 9 -6 -3
-10 0 -11 7 0 7 -7 -4 -14 -25 -12 -32 -14 -279 -15 -1522 l0 -1485 105 0 106
0 -11 23 -11 22 17 -22 16 -23 634 0 633 0 11 43 c17 65 21 67 15 8 l-4 -53
47 4 c27 3 88 23 137 45 190 86 361 134 549 154 142 16 676 6 781 -14 109 -21
255 -69 404 -133 126 -55 203 -69 214 -41 4 9 6 9 6 0 1 -10 134 -13 632 -13
l632 0 24 28 c20 21 23 22 14 5 -6 -12 -11 -24 -11 -27 0 -3 41 -6 90 -6 l90
0 0 2560 0 2560 -516 0 -515 0 3 -22 c2 -12 14 -28 26 -34 13 -6 28 -16 34
-22 8 -8 17 -8 31 -1 12 7 17 7 13 1 -3 -5 3 -12 14 -15 11 -3 23 -1 26 5 4 6
9 6 14 -2 4 -7 19 -12 34 -12 19 0 26 -6 26 -20 0 -13 5 -18 14 -15 9 4 16 -3
20 -18 4 -14 13 -22 23 -21 15 1 17 -6 15 -34 -2 -34 -2 -34 11 -11 13 21 15
22 21 5 4 -9 2 -20 -3 -24 -6 -3 -2 -12 9 -20 11 -8 20 -20 20 -27 0 -7 9 -17
20 -23 11 -6 20 -15 20 -21 0 -6 -7 -3 -16 5 -21 21 -24 20 -24 -9 0 -19 5
-25 21 -25 18 0 21 -4 16 -30 -4 -16 -2 -32 4 -36 6 -3 10 0 8 7 -5 37 4 49
11 14 5 -27 4 -42 -4 -47 -10 -7 -1 -12 17 -9 4 0 7 -5 7 -12 0 -8 4 -7 10 3
5 8 10 10 10 4 0 -5 -5 -15 -12 -22 -9 -9 -9 -12 0 -12 7 0 12 -5 12 -11 0 -5
-4 -7 -10 -4 -5 3 -10 -1 -10 -9 0 -9 -6 -16 -14 -16 -8 0 -17 -6 -19 -12 -4
-10 -6 -9 -6 1 -1 11 -4 11 -16 1 -22 -18 -42 -6 -49 32 -9 49 -32 77 -56 71
-19 -5 -20 0 -20 63 -1 82 -14 147 -38 180 -21 28 -20 28 -68 7 -44 -19 -55
-21 -69 -14 -14 7 -48 10 -66 5 -12 -3 -14 -14 -9 -54 5 -36 3 -53 -8 -64 -12
-12 -12 -20 2 -63 15 -46 24 -163 42 -538 3 -71 6 -141 7 -155 2 -20 11 -27
57 -42 30 -9 66 -17 80 -17 14 -1 36 -8 49 -17 34 -24 133 -11 239 30 86 34
86 34 120 97 l33 64 -3 127 c-4 147 8 149 17 2 7 -125 13 -164 25 -164 6 0 9
-3 9 -7 -1 -5 -1 -17 1 -28 l1 -20 9 20 c5 11 9 14 11 8 2 -18 6 -32 9 -35 1
-2 3 -13 4 -25 4 -31 16 -42 16 -15 0 12 4 22 9 22 5 0 8 -8 7 -17 0 -10 4
-17 11 -16 8 2 9 -6 2 -29 -5 -21 -5 -36 1 -42 7 -7 10 -2 10 14 0 17 3 21 11
13 8 -8 8 -17 0 -31 -8 -15 -8 -22 2 -25 9 -4 9 -8 -2 -15 -11 -8 -10 -12 5
-21 11 -6 13 -11 7 -11 -18 0 -16 -27 3 -34 10 -4 13 -13 9 -25 -4 -13 1 -27
14 -40 12 -12 17 -21 11 -21 -15 0 -12 -30 3 -36 8 -3 13 -20 12 -47 -1 -27 4
-47 14 -55 15 -12 15 -13 0 -9 -16 5 -20 -18 -5 -41 4 -7 2 -12 -5 -12 -8 0
-8 -4 1 -15 9 -10 9 -15 1 -15 -6 0 -11 -7 -11 -16 0 -8 5 -12 11 -8 7 4 7 -1
-1 -16 -8 -15 -8 -20 -1 -16 14 9 14 0 0 -26 -8 -15 -8 -19 0 -14 11 7 15 -4
12 -36 -1 -9 3 -19 9 -23 13 -8 13 -75 -1 -75 -5 0 -8 -4 -5 -9 8 -12 -4 -42
-13 -37 -4 3 -6 -19 -5 -47 1 -33 -5 -61 -15 -76 -10 -17 -12 -26 -4 -28 13
-5 5 -43 -9 -43 -6 0 -8 -7 -4 -15 3 -8 2 -15 -3 -15 -15 0 -22 -63 -9 -72 9
-6 6 -10 -10 -14 -20 -6 -23 -12 -20 -35 4 -28 -5 -39 -17 -20 -8 14 -45 9
-45 -6 0 -7 -4 -13 -10 -13 -5 0 -10 -5 -10 -11 0 -5 5 -7 10 -4 6 4 16 2 23
-3 7 -5 39 -17 72 -27 33 -9 65 -19 70 -20 34 -11 -50 -2 -137 14 -57 11 -122
23 -145 26 -26 4 -44 13 -48 23 -6 19 -69 62 -90 62 -8 0 -17 5 -21 11 -4 8
-9 7 -15 -2 -7 -11 -9 -10 -9 3 0 14 -6 16 -29 12 -30 -6 -97 22 -135 58 -15
14 -29 18 -51 14 -18 -4 -25 -3 -17 3 11 6 10 10 -3 15 -9 3 -22 3 -27 -1 -7
-3 -8 -1 -4 5 13 21 -15 13 -45 -13 l-30 -24 31 -16 c16 -8 30 -17 30 -20 0
-14 -70 -160 -78 -163 -25 -8 -30 132 -6 166 14 21 14 22 -5 22 -26 0 -58 -32
-67 -65 -3 -14 -10 -25 -15 -25 -5 0 -9 -7 -9 -16 0 -18 -56 -98 -89 -128
l-21 -19 33 -24 c17 -13 43 -27 57 -30 41 -10 174 -82 192 -104 28 -33 9 -42
-28 -14 -40 30 -45 20 -9 -19 15 -16 19 -26 11 -26 -21 0 -27 -38 -7 -43 13
-4 13 -5 -2 -6 -26 -2 -10 -21 18 -21 l23 0 -25 -77 c-24 -80 -63 -168 -63
-146 0 7 8 35 19 62 13 35 15 51 7 55 -8 3 -8 5 0 5 14 1 6 52 -10 66 -18 16
-33 48 -41 85 l-8 35 21 -25 c11 -13 18 -31 15 -40 -4 -12 -3 -12 5 -2 10 15
0 83 -19 125 -13 29 -56 40 -45 12 4 -13 2 -13 -14 -5 -16 9 -18 7 -15 -11 4
-18 1 -20 -19 -15 -20 5 -23 3 -18 -19 2 -13 10 -30 18 -36 8 -6 14 -29 14
-51 0 -49 -19 -128 -31 -128 -5 0 -9 -5 -9 -11 0 -14 -120 -139 -133 -139 -5
0 15 26 43 57 58 64 76 99 97 187 13 57 13 62 -10 108 l-24 48 29 0 c26 0 28
2 18 20 -13 24 -29 25 -78 3 -20 -9 -41 -15 -45 -14 -7 1 11 -34 65 -124 18
-31 25 -85 10 -85 -5 0 -15 -19 -21 -43 -15 -48 -56 -103 -148 -197 -61 -63
-63 -66 -51 -96 25 -67 -31 -93 -58 -28 -21 51 -12 73 46 114 27 19 81 70 119
113 100 110 104 148 30 261 -29 44 -39 54 -36 35 3 -19 -2 -28 -20 -36 -20
-10 -23 -9 -23 10 0 12 -9 33 -19 46 -10 13 -17 31 -15 40 3 11 -15 28 -54 51
-87 54 -238 124 -250 116 -4 -3 -9 6 -10 19 -1 13 4 28 11 32 22 13 118 134
129 162 5 14 11 37 13 51 1 13 8 26 14 28 6 2 11 10 11 18 0 8 7 25 15 37 8
13 17 60 21 107 4 47 8 87 10 89 2 2 16 6 31 10 26 6 28 8 22 46 l-6 40 -2
-38 c-1 -34 -4 -38 -23 -35 -21 3 -23 8 -22 63 0 33 4 108 8 166 6 75 5 111
-3 127 -8 14 -8 22 -1 22 5 0 9 5 8 12 -2 7 36 22 96 37 l100 26 53 75 c29 41
61 93 72 114 18 36 20 37 23 15 l5 -24 11 25 c6 14 11 21 11 17 1 -4 9 -3 20
2 25 14 38 71 40 183 3 122 -10 195 -70 404 -52 184 -78 312 -88 439 l-6 80
-1371 3 c-754 1 -1374 -1 -1377 -5z m420 -234 c193 -60 249 -81 328 -121 149
-75 224 -135 194 -154 -18 -11 11 -24 55 -24 22 0 37 -2 35 -4 -11 -11 -257
-37 -366 -39 -67 -1 -124 -5 -127 -8 -8 -8 -101 4 -247 32 -68 13 -114 25
-102 27 12 2 60 -4 106 -12 110 -21 133 -19 73 4 -27 11 -54 16 -60 13 -6 -3
-8 -2 -3 2 4 5 -2 18 -13 30 -33 35 -53 199 -31 257 13 33 45 33 158 -3z
m2063 -3 c9 -32 -19 -195 -40 -236 -14 -27 -31 -42 -61 -54 -23 -9 -39 -19
-36 -22 3 -3 42 2 87 10 127 25 158 17 40 -9 -138 -31 -242 -46 -255 -36 -5 5
-84 11 -175 15 -91 4 -201 12 -245 19 l-80 13 49 7 c46 7 109 37 131 63 25 30
390 207 403 196 1 -1 10 5 19 13 9 9 24 14 34 12 13 -4 19 0 20 11 0 10 3 12
5 5 4 -9 13 -8 37 2 41 18 61 15 67 -9z m-995 -216 c18 -5 -31 -8 -123 -9
-100 -1 -151 2 -147 9 7 12 224 12 270 0z m1715 -72 c0 -13 -8 -18 -25 -18
-21 0 -25 5 -25 28 0 41 21 58 37 30 7 -13 12 -31 13 -40z m-753 -1060 c-6
-102 -19 -140 -32 -98 -6 20 24 200 34 200 2 0 1 -46 -2 -102z m-2140 -88 l0
-75 -7 70 c-4 39 -7 97 -7 130 l0 60 7 -55 c5 -30 8 -89 7 -130z m1497 106
c-61 -12 -771 -11 -838 1 -30 5 132 8 419 8 316 0 452 -3 419 -9z m91 -24 c12
-4 21 -17 22 -32 1 -14 5 -50 9 -82 6 -51 5 -58 -15 -69 -17 -11 -21 -24 -21
-61 0 -27 3 -48 8 -48 15 0 13 -110 -2 -142 -15 -29 -15 -32 7 -49 12 -10 27
-22 32 -27 25 -22 131 37 142 78 3 14 26 63 50 110 48 92 49 75 2 -30 -28 -65
-65 -179 -61 -192 7 -26 -239 -108 -378 -127 -119 -16 -292 -24 -372 -17 l-74
7 4 32 c3 25 1 29 -7 17 -6 -8 -11 -23 -11 -32 0 -21 -24 -23 -137 -7 -163 22
-374 90 -398 128 -3 6 15 -2 40 -16 46 -25 158 -63 185 -62 8 0 -26 15 -76 32
-122 44 -138 56 -178 135 -18 37 -52 103 -75 147 -22 44 -41 89 -40 100 0 17
2 16 11 -5 29 -69 80 -171 84 -167 3 2 0 17 -6 32 -9 24 -9 26 4 16 8 -6 24
-37 37 -69 35 -89 54 -106 139 -122 58 -11 80 -5 80 21 0 10 6 19 13 20 6 0 2
5 -10 11 -12 6 -24 22 -27 37 -9 40 -5 131 5 131 4 0 5 8 2 17 -5 12 -2 15 10
10 14 -5 17 0 17 31 0 29 -5 39 -22 47 -21 9 -23 17 -25 92 -1 46 3 85 8 88 5
4 9 1 9 -5 0 -7 7 -5 16 4 19 19 94 22 94 4 0 -10 3 -9 9 1 6 10 19 12 42 7
19 -4 45 -6 59 -5 14 2 155 3 313 4 229 0 289 -3 296 -13 7 -11 9 -11 14 2 8
20 87 23 87 4 0 -7 5 -5 11 5 10 17 37 20 74 9z m42 -429 c-3 -10 -5 -2 -5 17
0 19 2 27 5 18 2 -10 2 -26 0 -35z m-2517 -253 c0 -23 -16 -26 -36 -6 -11 11
-11 16 -1 19 25 11 37 6 37 -13z m3910 9 c0 8 3 12 6 8 3 -3 -1 -16 -10 -29
l-16 -22 0 29 c0 23 3 27 10 15 8 -12 10 -12 10 -1z m77 -25 c-3 -3 -12 -4
-19 -1 -8 3 -5 6 6 6 11 1 17 -2 13 -5z m-4420 -40 c-3 -3 -12 -4 -19 -1 -8 3
-5 6 6 6 11 1 17 -2 13 -5z m3243 -4 c0 -5 -2 -10 -4 -10 -3 0 -8 5 -11 10 -3
6 -1 10 4 10 6 0 11 -4 11 -10z m-2899 -83 c-11 -23 -30 -72 -41 -109 -11 -38
-36 -98 -55 -135 -27 -54 -34 -82 -37 -136 -3 -79 -17 -101 -19 -30 -2 45 -2
46 -8 13 -5 -26 -11 -34 -24 -32 -9 2 -17 -1 -17 -7 0 -5 -6 -8 -14 -7 -21 3
-47 27 -40 38 3 5 -2 9 -12 8 -35 -4 -45 0 -38 13 5 8 2 8 -9 -2 -15 -12 -17
-11 -17 8 0 11 6 21 14 21 7 0 25 9 40 21 14 11 26 19 26 16 0 -2 21 6 48 19
l47 23 5 -32 c3 -18 10 32 14 111 4 80 12 140 17 136 5 -3 9 -13 9 -22 0 -9 4
-24 9 -31 6 -10 8 0 4 27 -3 24 -2 42 4 42 10 0 50 83 42 88 -2 2 10 10 26 16
43 18 52 -2 26 -57z m1219 22 c7 -13 5 -18 -11 -22 -12 -3 -20 -13 -19 -24 4
-31 0 -36 -15 -23 -13 11 -23 5 -65 -37 -54 -54 -69 -52 -20 3 16 19 39 53 51
76 l21 41 -36 -22 c-52 -32 -44 -17 12 24 50 37 54 36 82 -16z m1741 -29 c38
-39 69 -74 69 -79 0 -24 -19 -17 -55 20 -21 22 -40 37 -43 34 -3 -2 -18 5 -33
16 -16 11 -33 17 -39 14 -5 -3 -10 -2 -10 4 0 18 23 61 32 61 5 0 41 -32 79
-70z m1189 -45 c22 -46 43 -111 50 -153 13 -81 25 -98 75 -108 19 -3 35 -10
35 -14 0 -4 11 -12 25 -18 14 -6 25 -18 25 -27 0 -8 5 -15 12 -15 6 0 8 -3 4
-7 -4 -4 -23 -7 -43 -8 -20 0 -38 -6 -41 -13 -2 -6 1 -12 8 -12 6 0 8 -5 5
-10 -4 -6 -16 -8 -27 -5 -15 5 -21 1 -26 -17 -6 -20 -8 -17 -13 17 -4 22 -5
-52 -3 -165 2 -125 0 -197 -5 -185 -5 11 -9 96 -10 189 -1 93 -4 172 -6 177
-3 4 -14 56 -25 115 -11 60 -25 113 -30 118 -6 6 -10 20 -10 32 0 13 -6 29
-13 36 -19 19 -47 131 -40 158 4 17 8 20 11 10 3 -8 22 -51 42 -95z m-1633 53
c-3 -8 -6 -5 -6 6 -1 11 2 17 5 13 3 -3 4 -12 1 -19z m458 -93 c21 -30 36 -58
32 -61 -5 -6 -77 97 -77 111 0 12 10 2 45 -50z m564 -69 c-3 -3 -11 5 -18 17
-13 21 -12 21 5 5 10 -10 16 -20 13 -22z m-709 -120 c0 -2 -7 -9 -15 -16 -13
-11 -14 -10 -9 4 5 14 24 23 24 12z m-2830 -16 c0 -5 -2 -10 -4 -10 -3 0 -8 5
-11 10 -3 6 -1 10 4 10 6 0 11 -4 11 -10z m3517 -97 c3 -51 9 -73 21 -78 8 -3
17 -3 22 0 4 3 10 -4 13 -15 7 -29 -9 -34 -33 -10 -11 11 -29 20 -40 20 -11 0
-20 5 -20 10 0 6 -4 10 -8 10 -4 0 -6 -17 -4 -37 4 -32 6 -34 17 -20 20 28 45
21 45 -12 0 -19 -8 -34 -24 -45 -24 -15 -25 -14 -34 12 l-9 27 -15 -36 c-13
-30 -30 -43 -99 -78 -46 -23 -90 -50 -96 -59 -7 -9 -13 -12 -13 -8 0 13 113
136 120 131 10 -6 60 59 60 77 0 7 -9 2 -20 -12 -11 -14 -20 -22 -20 -19 0 4
-32 -25 -71 -65 -50 -51 -69 -64 -64 -47 4 13 30 46 59 74 70 68 194 176 177
155 -7 -10 -9 -18 -3 -18 5 0 15 14 21 30 11 34 16 38 18 13z m-297 -97 c0 -2
-8 -10 -17 -17 -16 -13 -17 -12 -4 4 13 16 21 21 21 13z m-2425 -76 c10 -11
16 -20 13 -20 -3 0 -13 9 -23 20 -10 11 -16 20 -13 20 3 0 13 -9 23 -20z
m-310 -20 c13 -6 15 -9 5 -9 -8 0 -22 4 -30 9 -18 12 -2 12 25 0z m429 -65
c-4 -8 -1 -15 5 -15 16 0 14 -19 -4 -36 -13 -13 -15 -12 -21 11 -7 28 0 55 15
55 6 0 8 -7 5 -15z m2121 -14 c17 -34 65 -71 92 -71 17 -1 17 -1 0 -11 -26
-15 -44 -57 -52 -123 -5 -47 -4 -58 7 -53 7 3 30 12 51 21 20 9 37 12 37 7 0
-5 15 -14 33 -21 35 -14 110 -61 115 -72 2 -5 8 -8 14 -8 13 0 58 -47 58 -60
0 -5 8 -14 18 -19 9 -6 14 -11 10 -11 -4 0 6 -28 22 -62 15 -35 38 -101 50
-148 13 -47 27 -89 31 -95 30 -32 -10 -137 -102 -271 -52 -75 -58 -90 -33 -80
14 5 15 0 10 -37 -4 -24 -2 -54 4 -68 10 -22 10 -21 6 8 -4 26 0 39 22 61 30
31 41 56 62 137 26 103 39 140 41 120 5 -48 17 91 18 200 1 139 -9 180 -71
298 -50 93 -121 171 -195 213 -48 26 -74 54 -38 40 8 -3 15 -2 15 2 0 14 217
88 227 78 3 -2 -33 -16 -78 -31 -45 -15 -91 -37 -102 -48 l-20 -20 36 7 c20 4
49 13 64 21 15 8 37 15 48 14 11 0 -11 -12 -48 -26 -37 -14 -66 -28 -63 -30 2
-2 41 7 86 21 95 30 96 31 80 11 -11 -14 -7 -19 13 -16 4 0 6 -2 6 -6 -3 -20
3 -33 29 -59 15 -16 33 -29 40 -30 28 -2 32 -5 32 -20 0 -8 5 -12 10 -9 6 3
10 1 10 -5 0 -6 5 -8 10 -5 6 3 10 -3 10 -14 0 -11 9 -22 20 -26 11 -3 20 -13
20 -21 0 -8 15 -31 34 -52 31 -33 35 -46 41 -112 4 -41 13 -98 21 -127 8 -28
14 -54 14 -58 0 -10 -63 -65 -75 -65 -17 0 -145 -137 -145 -156 0 -9 -6 -25
-14 -33 -7 -9 -25 -43 -38 -77 -13 -33 -42 -91 -63 -130 -21 -38 -60 -113 -87
-167 -47 -97 -47 -114 1 -81 23 17 23 16 16 -15 -5 -24 -3 -31 8 -31 9 0 18 6
21 13 3 6 3 2 0 -11 -3 -13 -1 -29 5 -35 6 -8 6 -18 0 -27 -7 -13 -10 -13 -18
-1 -7 11 -11 10 -20 -5 -9 -16 -12 -17 -21 -4 -5 8 -10 10 -10 4 0 -6 -12 -10
-26 -8 -20 2 -24 -1 -19 -14 5 -14 4 -15 -6 -5 -18 18 -30 16 -23 -2 4 -9 0
-15 -9 -15 -8 0 -26 -17 -39 -37 -55 -82 -158 -265 -159 -281 0 -10 -3 -12 -6
-4 -2 6 -9 12 -14 12 -6 0 -8 -4 -5 -8 2 -4 1 -14 -4 -22 -7 -12 -12 -11 -29
4 -28 26 -27 12 2 -14 12 -12 18 -20 12 -18 -15 5 -50 -25 -53 -46 -2 -11 1
-15 7 -11 6 3 11 -1 11 -9 0 -9 5 -16 10 -16 6 0 10 -4 10 -9 0 -5 -9 -7 -20
-4 -11 3 -17 10 -13 16 3 5 2 7 -4 4 -6 -4 -59 14 -119 39 -189 79 -358 121
-522 130 -386 23 -652 12 -833 -35 -63 -16 -148 -43 -189 -59 -152 -61 -180
-72 -180 -67 0 3 14 14 31 24 18 11 26 22 20 25 -6 4 -11 2 -11 -3 0 -6 -4
-11 -10 -11 -5 0 -7 7 -4 15 4 8 11 15 18 15 17 0 42 49 49 95 3 22 3 34 0 28
-9 -23 -21 -14 -27 20 -3 18 -15 39 -26 47 -11 8 -20 21 -20 30 0 13 -1 13
-10 0 -7 -12 -12 -12 -22 -2 -9 9 -9 12 1 12 7 0 9 5 6 10 -3 6 -15 10 -27 10
-13 0 -18 5 -15 14 4 11 -1 13 -24 11 -21 -3 -29 0 -29 11 0 8 -4 13 -9 10 -5
-3 -12 6 -15 20 -5 20 -12 25 -27 21 -15 -4 -19 -2 -15 9 5 13 -5 19 -26 15
-5 0 -8 8 -8 19 0 13 -5 18 -15 14 -8 -4 -23 -3 -32 2 -10 4 -22 8 -26 8 -5 1
-15 9 -22 19 -28 38 -22 -9 8 -63 81 -146 147 -275 145 -282 -3 -8 -245 424
-298 531 -12 25 -28 51 -36 58 -14 14 -10 61 8 95 4 10 5 36 2 58 -6 35 -4 39
10 34 9 -3 16 -13 16 -22 0 -8 3 -13 6 -9 11 11 -13 63 -59 125 -57 78 -118
206 -90 189 5 -3 22 35 37 86 75 255 98 294 227 398 64 53 93 57 130 20 17
-17 48 -35 70 -41 21 -6 39 -15 39 -19 0 -5 9 -11 19 -14 19 -5 20 2 23 117 2
66 1 126 0 133 -2 7 -34 15 -75 20 -40 4 -62 9 -50 11 12 2 20 9 18 15 -3 7 8
21 23 31 27 20 27 20 9 0 -27 -32 -20 -38 17 -15 45 28 60 27 52 -4 -7 -28 5
-33 24 -10 19 23 33 18 28 -9 -5 -25 -5 -25 26 -10 l31 15 -22 -19 c-12 -11
-19 -22 -16 -26 4 -3 -3 -6 -15 -6 -21 0 -22 -4 -22 -87 0 -49 -3 -104 -6
-124 l-6 -35 79 -14 c43 -7 94 -13 113 -14 l35 -1 9 93 c11 121 31 125 23 5
-3 -49 -8 -95 -12 -104 -5 -13 8 -20 62 -38 88 -28 86 -26 138 -106 25 -37 45
-62 45 -54 0 23 -66 151 -92 179 -12 14 -19 20 -14 13 5 -8 4 -13 -3 -13 -6 0
-11 4 -11 10 0 18 -63 81 -76 76 -11 -4 -14 9 -14 59 0 60 -2 67 -31 92 -17
16 -46 31 -65 34 l-34 6 -1 -94 c-1 -51 -3 -97 -4 -103 -1 -5 -3 -13 -4 -17
-7 -27 -22 54 -21 112 2 98 3 95 -24 95 -35 0 -42 18 -12 32 14 6 26 15 26 20
0 4 8 8 17 8 13 0 14 -3 5 -12 -16 -16 -15 -33 1 -19 8 6 17 8 20 5 4 -4 19 1
34 11 l28 18 -19 -21 c-22 -25 -11 -28 30 -8 69 33 96 29 54 -9 -11 -10 -20
-22 -20 -27 0 -9 34 -57 43 -61 2 -1 17 13 33 31 16 18 37 31 49 31 15 -1 16
-2 3 -6 -9 -2 -19 -10 -22 -18 -5 -15 28 -13 88 6 19 6 33 5 42 -2 8 -6 20 -9
27 -6 8 3 20 1 28 -4 11 -7 11 -9 1 -9 -7 0 -10 -4 -7 -10 3 -5 -4 -11 -17
-11 -65 -4 92 -18 273 -24 200 -7 470 1 453 14 -5 3 -10 16 -12 29 -3 19 1 22
28 22 17 0 38 -7 46 -15 19 -19 44 -20 44 -2 0 8 6 14 13 14 6 0 21 3 32 6 23
8 85 -26 85 -46 0 -15 -92 -32 -261 -47 -219 -20 -569 -7 -811 29 -65 10 -120
16 -123 13 -3 -3 -5 -20 -5 -38 0 -22 6 -37 19 -43 16 -9 18 -8 14 7 -3 12 4
22 21 30 19 8 26 8 26 1 0 -8 4 -8 13 -1 10 9 17 6 27 -8 8 -11 22 -20 32 -20
10 0 18 -8 19 -17 0 -14 2 -13 9 5 5 12 12 22 15 22 4 0 3 -4 0 -10 -3 -5 -4
-10 -1 -10 2 0 12 -3 22 -7 11 -4 15 -3 10 5 -10 17 10 23 24 6 11 -12 15 -12
21 -2 7 10 9 9 9 -3 0 -20 27 -33 36 -17 4 7 10 5 16 -6 9 -16 11 -16 25 1 8
10 13 14 10 8 -2 -5 5 -18 16 -28 19 -19 19 -18 13 5 -5 19 -4 18 7 -4 12 -27
13 -27 26 -7 20 33 25 13 7 -26 -10 -20 -15 -41 -12 -48 2 -7 5 -4 5 6 1 26
30 20 37 -8 3 -14 9 -26 13 -26 52 -9 62 -7 56 12 -10 29 4 23 16 -8 7 -16 13
-23 16 -15 6 15 53 16 53 1 0 -8 4 -8 13 0 10 8 14 7 14 -4 0 -17 -22 -20 -32
-5 -3 5 -13 6 -21 3 -13 -5 -13 -7 -2 -15 9 -6 4 -8 -16 -6 -19 2 -31 -2 -33
-12 -4 -13 -3 -13 6 0 6 8 11 11 11 5 0 -5 11 -10 25 -10 14 0 25 3 25 7 0 4
12 3 28 -1 15 -4 44 -6 65 -3 20 2 37 0 37 -5 0 -12 40 -14 62 -2 12 6 25 6
37 -1 14 -7 22 -7 27 1 3 6 15 8 26 6 11 -3 31 -2 43 3 15 6 26 5 29 -1 2 -5
3 -4 2 3 -2 7 -13 12 -24 10 -13 -2 -25 3 -28 13 -4 9 -13 14 -20 11 -8 -3
-14 -1 -14 3 0 5 14 14 30 20 22 7 30 16 30 33 0 14 -3 19 -8 11 -5 -8 -13 -9
-22 -3 -21 13 -5 23 26 16 14 -4 24 -9 21 -13 -3 -3 3 -14 13 -26 11 -11 17
-24 13 -30 -3 -5 0 -8 7 -5 7 2 14 12 16 21 1 9 -2 15 -7 11 -5 -3 -9 7 -9 21
0 14 -9 35 -20 47 -10 12 -17 25 -14 30 7 10 22 -5 57 -57 15 -22 27 -34 27
-28 0 7 -5 15 -10 18 -6 4 -8 11 -5 16 4 5 -1 16 -10 25 -25 26 -9 28 25 4 17
-12 34 -19 38 -15 4 4 -1 13 -11 20 -10 7 -19 22 -22 33 -3 15 3 21 26 26 17
3 29 12 29 21 0 13 3 13 14 3 11 -10 8 -15 -20 -28 -33 -15 -33 -15 -14 -38
17 -20 19 -21 24 -5 3 10 4 3 2 -15 l-3 -33 22 23 c12 13 19 25 15 28 -12 9
-20 40 -10 40 6 0 10 -6 10 -14 0 -9 7 -13 20 -11 26 5 25 -3 -2 -34 -18 -20
-15 -19 10 4 27 25 33 36 30 63 -6 48 8 39 15 -10 5 -40 3 -45 -49 -100 -29
-33 -59 -69 -65 -81 -11 -21 -10 -20 15 3 15 14 30 24 32 22 2 -1 17 4 32 12
32 17 90 32 156 41 l49 7 -7 64 c-7 67 0 134 14 134 4 0 8 -39 9 -86 1 -48 4
-90 6 -95 7 -10 34 -1 57 19 11 9 27 12 43 8 l25 -6 0 107 0 108 -42 38 c-39
35 -35 43 4 9 15 -13 21 -13 53 2 19 9 40 14 46 10 7 -4 9 1 7 12 -2 11 -11
18 -21 16 -9 -2 -17 2 -17 8 0 6 5 8 12 4 7 -5 9 -2 5 9 -5 14 4 24 25 26 4 1
14 -12 23 -28z m510 19 c-3 -5 -12 -10 -18 -10 -7 0 -6 4 3 10 19 12 23 12 15
0z m-2555 -23 c0 -2 -10 -12 -22 -23 l-23 -19 19 23 c18 21 26 27 26 19z
m2467 -3 c-3 -3 -12 -4 -19 -1 -8 3 -5 6 6 6 11 1 17 -2 13 -5z m-83 -24 c-28
-10 -62 -24 -75 -31 -13 -7 -33 -13 -44 -15 -11 -1 -29 -6 -40 -10 -18 -7 -18
-6 -5 7 8 8 53 27 100 41 96 30 142 36 64 8z m-2609 -46 c39 -13 61 -23 50
-23 -23 -1 -139 34 -163 49 -24 14 24 3 113 -26z m545 32 c0 -2 -8 -10 -17
-17 -16 -13 -17 -12 -4 4 13 16 21 21 21 13z m-560 -68 c0 -8 -101 20 -114 32
-5 5 19 1 53 -8 33 -9 61 -20 61 -24z m230 5 c18 -59 25 -167 11 -159 -6 4
-11 15 -11 25 0 10 -7 50 -16 89 -13 58 -20 72 -37 75 -15 3 -12 5 10 6 29 1
33 -3 43 -36z m1731 10 c32 -16 57 -32 55 -38 -1 -5 -23 -13 -48 -16 -25 -4
-55 -12 -67 -18 -24 -13 -28 0 -6 19 17 14 20 46 5 55 -11 7 -14 25 -3 25 3 0
32 -12 64 -27z m177 9 l24 -18 -57 -21 c-39 -15 -55 -17 -52 -8 3 7 1 17 -5
23 -7 7 -1 15 18 26 37 20 44 19 72 -2z m295 1 c-7 -2 -19 -2 -25 0 -7 3 -2 5
12 5 14 0 19 -2 13 -5z m-2510 -24 c66 -18 85 -20 117 -10 57 17 59 13 10 -15
-58 -33 -81 -54 -73 -67 4 -6 1 -7 -6 -2 -15 9 -99 -76 -123 -126 -59 -121
-67 -160 -72 -333 -3 -130 8 -192 58 -316 25 -61 47 -125 51 -143 6 -30 6 -31
-8 -12 -8 11 -36 67 -62 125 -26 58 -51 110 -55 115 -5 6 -13 28 -19 50 -12
41 -37 63 -138 115 -24 12 -43 26 -43 30 0 4 -9 10 -20 13 -22 6 -22 24 5 117
8 30 15 64 15 77 0 24 29 94 43 104 5 3 7 8 6 10 -6 8 66 98 76 95 5 -1 25 16
43 38 19 23 45 48 58 56 13 8 24 23 24 33 0 10 7 20 15 23 8 4 12 11 8 17 -4
7 1 8 13 4 18 -7 18 -7 0 8 -26 20 -17 19 77 -6z m1840 -6 c-7 -2 -19 -2 -25
0 -7 3 -2 5 12 5 14 0 19 -2 13 -5z m-1632 -26 c-10 -9 -11 -8 -5 6 3 10 9 15
12 12 3 -3 0 -11 -7 -18z m-21 -12 c0 -7 -84 -60 -91 -58 -4 1 -34 -23 -68
-53 -49 -45 -71 -75 -106 -148 -25 -50 -45 -83 -45 -74 0 29 47 125 81 168 36
45 113 111 132 114 7 1 30 14 52 29 42 28 45 30 45 22z m64 -9 c-3 -7 -17 -19
-32 -27 -36 -19 -224 -158 -240 -178 -23 -28 -85 -155 -99 -201 -12 -43 -13
-43 -9 -8 8 66 90 221 147 277 29 28 64 58 78 66 51 28 96 49 104 47 4 -1 7 4
7 12 0 14 14 24 37 25 7 1 10 -5 7 -13z m2351 -83 c53 -37 115 -87 136 -112
51 -57 109 -175 115 -232 l5 -44 -19 55 c-23 69 -76 176 -107 215 -12 17 -82
68 -154 115 -72 47 -131 88 -131 93 0 12 50 -17 155 -90z m954 -8 c-4 -55 -11
-131 -15 -170 -4 -38 -8 -94 -8 -122 0 -29 -3 -53 -6 -53 -10 0 -6 -45 4 -52
7 -5 7 -8 -1 -8 -8 0 -11 -11 -9 -30 2 -16 1 -32 -2 -35 -3 -3 -7 -24 -9 -48
-3 -23 -10 -53 -16 -67 -13 -26 -83 -79 -105 -80 -7 0 -20 -6 -28 -14 -7 -8
-17 -16 -22 -18 -7 -3 -97 -180 -172 -343 -55 -118 -201 -410 -209 -418 -5 -5
-9 25 -10 65 0 40 -3 98 -6 128 -4 47 -3 50 5 20 5 -19 10 -68 11 -107 1 -40
4 -73 6 -73 2 0 16 28 32 63 129 281 160 358 155 374 -4 13 -3 14 4 5 8 -11
10 -11 15 0 82 200 99 242 97 247 -1 2 2 7 7 10 28 18 149 358 179 503 10 45
20 85 23 88 4 3 8 16 10 30 2 14 9 63 16 110 7 47 13 77 14 67 1 -11 6 -15 12
-11 8 4 10 -9 8 -44 -2 -27 -1 -48 4 -45 4 2 7 30 7 62 0 47 7 80 15 69 1 -2
-2 -48 -6 -103z m-4294 -32 c19 -120 60 -275 106 -402 16 -46 34 -103 39 -127
14 -60 73 -200 181 -427 89 -184 164 -365 156 -373 -2 -2 -27 46 -55 108 -209
465 -247 538 -282 538 -5 0 -10 7 -10 15 0 16 -34 38 -44 28 -3 -3 -15 2 -26
12 -12 11 -26 20 -33 21 -22 4 -62 23 -49 23 6 1 12 7 12 15 0 9 -8 13 -22 10
l-23 -5 23 12 c26 14 29 29 5 29 -15 0 -14 2 3 15 18 14 18 14 -5 15 -24 0
-24 0 -5 15 18 14 18 14 -6 15 l-25 1 23 10 c13 5 20 13 17 19 -4 6 -12 7 -18
3 -7 -4 -6 0 2 10 12 15 11 17 -10 18 l-24 0 23 9 c23 10 31 30 11 30 -8 0 -8
4 0 14 9 11 9 15 -1 19 -10 4 -10 8 2 16 12 9 9 11 -15 11 l-30 1 25 11 25 11
-30 7 -30 8 30 2 c17 1 24 4 16 7 -11 5 -11 7 0 15 10 6 2 7 -21 4 -33 -5 -34
-5 -8 5 28 11 35 45 13 61 -6 5 -5 8 4 8 10 0 12 10 7 43 -21 126 -21 120 10
113 21 -5 25 -4 14 4 -8 5 -10 10 -4 10 7 0 8 17 4 50 -12 95 7 50 25 -57z
m1802 101 c-3 -3 -12 -4 -19 -1 -8 3 -5 6 6 6 11 1 17 -2 13 -5z m956 -46 c-8
-46 -13 -48 -13 -5 0 21 4 37 10 37 5 0 7 -14 3 -32z m-1133 18 c0 -2 -7 -6
-15 -10 -8 -3 -15 -1 -15 4 0 6 7 10 15 10 8 0 15 -2 15 -4z m25 -16 c-3 -5
-14 -10 -23 -10 -15 0 -15 2 -2 10 20 13 33 13 25 0z m850 -10 c3 -5 1 -10 -4
-10 -6 0 -11 5 -11 10 0 6 2 10 4 10 3 0 8 -4 11 -10z m-720 -30 c3 -5 1 -10
-4 -10 -6 0 -11 5 -11 10 0 6 2 10 4 10 3 0 8 -4 11 -10z m683 -15 c-3 -3 -9
2 -12 12 -6 14 -5 15 5 6 7 -7 10 -15 7 -18z m-461 -64 c6 -9 9 -18 7 -21 -3
-2 -9 2 -14 9 -4 8 -21 20 -37 27 l-28 13 30 -6 c17 -4 35 -13 42 -22z m-57 5
c0 -11 -19 -15 -25 -6 -3 5 1 10 9 10 9 0 16 -2 16 -4z m31 -41 c5 4 9 -1 9
-9 0 -9 -4 -16 -10 -16 -13 0 -31 36 -22 45 4 4 8 0 10 -9 2 -9 8 -14 13 -11z
m409 1 c0 -3 -4 -8 -10 -11 -5 -3 -10 -1 -10 4 0 6 5 11 10 11 6 0 10 -2 10
-4z m1179 -46 c11 -24 11 -24 -3 -6 -9 11 -16 24 -16 30 0 12 5 7 19 -24z
m-1389 -4 c0 -2 -7 -6 -15 -10 -8 -3 -15 -1 -15 4 0 6 7 10 15 10 8 0 15 -2
15 -4z m1784 -141 c9 -21 14 -40 12 -42 -7 -7 -56 100 -56 122 0 39 15 37 22
-3 3 -21 14 -56 22 -77z m-3657 53 c-2 -13 -4 -5 -4 17 -1 22 1 32 4 23 2 -10
2 -28 0 -40z m3590 -10 c-2 -13 -4 -3 -4 22 0 25 2 35 4 23 2 -13 2 -33 0 -45z
m-3607 -1 c0 -18 -7 -42 -16 -53 -15 -18 -15 -18 -5 3 6 12 11 35 11 52 0 17
2 31 5 31 3 0 5 -15 5 -33z m3590 -740 c0 -7 -49 -102 -49 -96 -2 15 32 99 40
99 5 0 9 -1 9 -3z m-3343 -312 c-6 -125 -17 -134 -17 -13 0 85 4 108 18 108 2
0 2 -43 -1 -95z m2603 -375 c0 -48 -1 -49 -18 -32 -16 14 -17 19 -5 33 7 8 13
23 13 32 0 9 2 17 5 17 3 0 5 -22 5 -50z m40 -24 c0 -23 -16 -27 -17 -5 -1 10
2 19 8 19 5 0 9 -6 9 -14z"/>
<path d="M1638 4553 c12 -2 30 -2 40 0 9 3 -1 5 -23 4 -22 0 -30 -2 -17 -4z"/>
<path d="M3023 4573 c9 -2 23 -2 30 0 6 3 -1 5 -18 5 -16 0 -22 -2 -12 -5z"/>
<path d="M2188 3376 c-2 -54 1 -95 6 -93 8 3 9 177 1 185 -2 2 -5 -39 -7 -92z"/>
<path d="M2913 3420 c0 -25 2 -35 4 -22 2 12 2 32 0 45 -2 12 -4 2 -4 -23z"/>
<path d="M3002 3381 c-1 -47 2 -81 6 -75 5 5 5 43 2 84 l-7 75 -1 -84z"/>
<path d="M2900 3310 c-12 -8 -11 -10 8 -10 12 0 22 5 22 10 0 13 -11 13 -30 0z"/>
<path d="M2290 3286 c0 -22 3 -27 11 -19 8 8 8 16 0 30 -9 16 -10 14 -11 -11z"/>
<path d="M2291 3074 c0 -11 3 -14 6 -6 3 7 2 16 -1 19 -3 4 -6 -2 -5 -13z"/>
<path d="M2170 3063 c1 -18 28 -44 35 -34 3 6 0 18 -9 26 -16 16 -26 19 -26 8z"/>
<path d="M2292 3020 c0 -14 2 -19 5 -12 2 6 2 18 0 25 -3 6 -5 1 -5 -13z"/>
<path d="M2442 2980 c0 -14 2 -19 5 -12 2 6 2 18 0 25 -3 6 -5 1 -5 -13z"/>
<path d="M2160 2890 c14 -4 36 -8 50 -8 22 0 22 1 -5 8 -16 4 -39 8 -50 8 -16
0 -15 -2 5 -8z"/>
<path d="M2240 2886 c0 -9 18 -15 52 -19 28 -4 54 -4 57 -2 9 9 -9 18 -39 19
-16 1 -30 4 -30 9 0 4 -9 7 -20 7 -11 0 -20 -6 -20 -14z"/>
<path d="M2939 2891 c12 -8 51 -4 51 5 0 2 -15 4 -32 4 -23 0 -29 -3 -19 -9z"/>
<path d="M2858 2883 c7 -3 16 -2 19 1 4 3 -2 6 -13 5 -11 0 -14 -3 -6 -6z"/>
<path d="M2718 2873 c17 -2 47 -2 65 0 17 2 3 4 -33 4 -36 0 -50 -2 -32 -4z"/>
<path d="M2618 2853 c23 -2 61 -2 85 0 23 2 4 4 -43 4 -47 0 -66 -2 -42 -4z"/>
<path d="M422 2515 c0 -16 2 -22 5 -12 2 9 2 23 0 30 -3 6 -5 -1 -5 -18z"/>
<path d="M4751 2374 c0 -11 3 -14 6 -6 3 7 2 16 -1 19 -3 4 -6 -2 -5 -13z"/>
<path d="M3535 1953 c-41 -10 -45 -22 -45 -134 0 -60 3 -109 8 -109 4 0 25 11
47 23 l40 23 -3 59 c-3 51 0 65 22 94 14 19 23 38 20 42 -5 9 -55 10 -89 2z"/>
<path d="M2005 1730 c10 -11 20 -20 23 -20 3 0 -3 9 -13 20 -10 11 -20 20 -23
20 -3 0 3 -9 13 -20z"/>
<path d="M2055 1720 c2 -11 18 -40 35 -66 18 -25 43 -64 57 -87 21 -36 24 -38
18 -14 -5 27 -70 135 -89 148 -5 4 -6 11 -2 17 3 5 -1 12 -8 15 -10 4 -13 0
-11 -13z"/>
<path d="M2171 1694 c0 -11 3 -14 6 -6 3 7 2 16 -1 19 -3 4 -6 -2 -5 -13z"/>
<path d="M3050 1660 c-6 -11 -8 -20 -6 -20 3 0 10 9 16 20 6 11 8 20 6 20 -3
0 -10 -9 -16 -20z"/>
<path d="M3019 1613 c-13 -16 -12 -17 4 -4 16 13 21 21 13 21 -2 0 -10 -8 -17
-17z"/>
<path d="M2860 1610 c-12 -8 -12 -10 3 -16 21 -8 35 2 21 16 -5 5 -15 6 -24 0z"/>
<path d="M2986 1555 c-9 -26 -7 -32 5 -12 6 10 9 21 6 23 -2 3 -7 -2 -11 -11z"/>
<path d="M3016 1545 c-9 -26 -7 -32 5 -12 6 10 9 21 6 23 -2 3 -7 -2 -11 -11z"/>
<path d="M2176 1507 c3 -10 9 -15 12 -12 3 3 0 11 -7 18 -10 9 -11 8 -5 -6z"/>
<path d="M2278 1493 c7 -3 16 -2 19 1 4 3 -2 6 -13 5 -11 0 -14 -3 -6 -6z"/>
<path d="M2397 1493 c18 -2 50 -2 70 0 21 2 7 4 -32 4 -38 0 -55 -2 -38 -4z"/>
<path d="M2628 1493 c28 -2 76 -2 105 0 28 2 5 3 -53 3 -58 0 -81 -1 -52 -3z"/>
<path d="M2833 1493 c15 -2 37 -2 50 0 12 2 0 4 -28 4 -27 0 -38 -2 -22 -4z"/>
<path d="M2150 1470 c0 -26 23 -61 49 -75 25 -13 81 -15 354 -15 179 0 339 3
357 6 24 5 36 15 46 40 8 18 14 37 14 41 0 4 -185 9 -410 10 -236 1 -410 -2
-410 -7z"/>
<path d="M1619 1441 c-33 -33 -38 -74 -13 -109 36 -52 104 -48 137 7 56 96
-46 179 -124 102z"/>
<path d="M3403 1455 c-46 -32 -39 -126 11 -145 35 -13 63 -2 86 35 28 45 26
79 -6 104 -32 25 -61 27 -91 6z"/>
<path d="M2174 1383 l19 -23 371 2 371 3 -369 2 c-334 3 -372 5 -390 21 -21
17 -21 17 -2 -5z"/>
<path d="M1470 1193 c0 -17 44 -51 95 -73 102 -44 223 -24 305 50 37 33 25 31
-25 -5 -49 -36 -95 -49 -165 -49 -71 1 -146 28 -187 66 -13 12 -23 17 -23 11z"/>
<path d="M1460 1157 c49 -55 121 -88 194 -93 l61 -3 -58 9 c-77 12 -143 43
-192 88 l-40 37 35 -38z"/>
<path d="M3606 1166 c-15 -13 -47 -29 -70 -36 -71 -21 -73 -23 -53 -27 23 -6
143 52 151 72 7 19 7 19 -28 -9z"/>
<path d="M3270 1176 c0 -11 22 -31 50 -46 32 -17 100 -30 100 -19 0 5 -9 9
-20 9 -23 0 -87 28 -112 49 -10 8 -18 11 -18 7z"/>
<path d="M3649 1143 c-13 -16 -12 -17 4 -4 9 7 17 15 17 17 0 8 -8 3 -21 -13z"/>
<path d="M1728 1073 c6 -2 18 -2 25 0 6 3 1 5 -13 5 -14 0 -19 -2 -12 -5z"/>
<path d="M3458 1063 c6 -2 18 -2 25 0 6 3 1 5 -13 5 -14 0 -19 -2 -12 -5z"/>
<path d="M1231 794 c0 -11 3 -14 6 -6 3 7 2 16 -1 19 -3 4 -6 -2 -5 -13z"/>
<path d="M1032 1300 c0 -14 2 -19 5 -12 2 6 2 18 0 25 -3 6 -5 1 -5 -13z"/>
<path d="M1031 1224 c0 -11 3 -14 6 -6 3 7 2 16 -1 19 -3 4 -6 -2 -5 -13z"/>
<path d="M4190 4937 c0 -4 -5 -5 -12 -1 -7 4 -8 3 -4 -4 5 -9 13 -9 29 -1 31
16 32 18 8 16 -11 -1 -21 -5 -21 -10z"/>
<path d="M691 4924 c0 -11 3 -14 6 -6 3 7 2 16 -1 19 -3 4 -6 -2 -5 -13z"/>
<path d="M837 4912 c-21 -23 -36 -93 -37 -162 0 -61 -11 -80 -47 -80 -18 0
-24 -8 -34 -42 -6 -24 -13 -49 -15 -55 -2 -9 -30 -13 -94 -13 l-90 0 -28 -57
c-53 -106 -65 -157 -59 -252 5 -95 47 -219 76 -228 9 -3 41 -16 72 -29 64 -27
208 -51 218 -36 6 11 148 52 191 56 23 2 26 8 32 62 4 32 11 190 15 351 6 211
11 295 21 305 6 6 12 20 12 31 0 10 5 15 10 12 6 -3 10 1 10 9 0 10 -9 16 -21
16 -20 0 -21 3 -14 65 7 73 -1 81 -42 43 l-24 -22 -62 22 c-74 26 -70 26 -90
4z m-73 -278 c34 -13 14 -64 -25 -64 -10 0 -12 31 -3 54 7 18 7 18 28 10z"/>
<path d="M1082 4730 c0 -19 2 -27 5 -17 2 9 2 25 0 35 -3 9 -5 1 -5 -18z"/>
<path d="M455 4660 c3 -5 8 -10 11 -10 2 0 4 5 4 10 0 6 -5 10 -11 10 -5 0 -7
-4 -4 -10z"/>
<path d="M140 4080 c0 -13 18 -22 24 -11 3 5 -1 11 -9 15 -8 3 -15 1 -15 -4z"/>
<path d="M3703 3635 c0 -22 2 -30 4 -17 2 12 2 30 0 40 -3 9 -5 -1 -4 -23z"/>
<path d="M1410 3330 c0 -5 5 -10 10 -10 6 0 10 5 10 10 0 6 -4 10 -10 10 -5 0
-10 -4 -10 -10z"/>
<path d="M3969 2843 c-13 -16 -12 -17 4 -4 9 7 17 15 17 17 0 8 -8 3 -21 -13z"/>
<path d="M3755 2650 c21 -24 26 -25 19 -6 -3 8 -13 17 -22 21 -13 5 -13 2 3
-15z"/>
<path d="M1180 2636 c0 -2 7 -7 16 -10 8 -3 12 -2 9 4 -6 10 -25 14 -25 6z"/>
<path d="M1006 2473 c5 -5 12 -12 16 -18 4 -6 8 -2 8 8 0 9 -7 17 -17 17 -9 0
-12 -3 -7 -7z"/>
<path d="M1007 2256 c20 -39 28 -44 36 -21 4 9 -5 22 -24 35 l-29 22 17 -36z"/>
<path d="M1340 2020 c20 -13 33 -13 25 0 -3 6 -14 10 -23 10 -15 0 -15 -2 -2
-10z"/>
<path d="M2040 20 c-10 -19 -8 -20 35 -20 43 0 45 1 35 20 -6 12 -21 20 -35
20 -14 0 -29 -8 -35 -20z"/>
<path d="M2992 28 c-20 -20 -14 -28 23 -28 33 0 35 2 25 20 -12 23 -30 26 -48
8z"/>
</g>
</svg>
